<svg width="87" height="27" viewBox="0 0 87 27" fill="none" xmlns="http://www.w3.org/2000/svg">
<path d="M0.774 15.032C0.774 14.024 0.978 13.142 1.386 12.386C1.794 11.618 2.352 11.024 3.06 10.604C3.78 10.184 4.584 9.974 5.472 9.974C6.24 9.974 6.954 10.154 7.614 10.514C8.274 10.862 8.778 11.324 9.126 11.9V6.68H10.782V20H9.126V18.146C8.802 18.734 8.322 19.22 7.686 19.604C7.05 19.976 6.306 20.162 5.454 20.162C4.578 20.162 3.78 19.946 3.06 19.514C2.352 19.082 1.794 18.476 1.386 17.696C0.978 16.916 0.774 16.028 0.774 15.032ZM9.126 15.05C9.126 14.306 8.976 13.658 8.676 13.106C8.376 12.554 7.968 12.134 7.452 11.846C6.948 11.546 6.39 11.396 5.778 11.396C5.166 11.396 4.608 11.54 4.104 11.828C3.6 12.116 3.198 12.536 2.898 13.088C2.598 13.64 2.448 14.288 2.448 15.032C2.448 15.788 2.598 16.448 2.898 17.012C3.198 17.564 3.6 17.99 4.104 18.29C4.608 18.578 5.166 18.722 5.778 18.722C6.39 18.722 6.948 18.578 7.452 18.29C7.968 17.99 8.376 17.564 8.676 17.012C8.976 16.448 9.126 15.794 9.126 15.05ZM23.3001 14.69C23.3001 15.002 23.2821 15.332 23.2461 15.68H15.3621C15.4221 16.652 15.7521 17.414 16.3521 17.966C16.9641 18.506 17.7021 18.776 18.5661 18.776C19.2741 18.776 19.8621 18.614 20.3301 18.29C20.8101 17.954 21.1461 17.51 21.3381 16.958H23.1021C22.8381 17.906 22.3101 18.68 21.5181 19.28C20.7261 19.868 19.7421 20.162 18.5661 20.162C17.6301 20.162 16.7901 19.952 16.0461 19.532C15.3141 19.112 14.7381 18.518 14.3181 17.75C13.8981 16.97 13.6881 16.07 13.6881 15.05C13.6881 14.03 13.8921 13.136 14.3001 12.368C14.7081 11.6 15.2781 11.012 16.0101 10.604C16.7541 10.184 17.6061 9.974 18.5661 9.974C19.5021 9.974 20.3301 10.178 21.0501 10.586C21.7701 10.994 22.3221 11.558 22.7061 12.278C23.1021 12.986 23.3001 13.79 23.3001 14.69ZM21.6081 14.348C21.6081 13.724 21.4701 13.19 21.1941 12.746C20.9181 12.29 20.5401 11.948 20.0601 11.72C19.5921 11.48 19.0701 11.36 18.4941 11.36C17.6661 11.36 16.9581 11.624 16.3701 12.152C15.7941 12.68 15.4641 13.412 15.3801 14.348H21.6081ZM27.8502 6.68V20H26.2122V6.68H27.8502ZM40.3919 14.69C40.3919 15.002 40.3739 15.332 40.3379 15.68H32.4539C32.5139 16.652 32.8439 17.414 33.4439 17.966C34.0559 18.506 34.7939 18.776 35.6579 18.776C36.3659 18.776 36.9539 18.614 37.4219 18.29C37.9019 17.954 38.2379 17.51 38.4299 16.958H40.1939C39.9299 17.906 39.4019 18.68 38.6099 19.28C37.8179 19.868 36.8339 20.162 35.6579 20.162C34.7219 20.162 33.8819 19.952 33.1379 19.532C32.4059 19.112 31.8299 18.518 31.4099 17.75C30.9899 16.97 30.7799 16.07 30.7799 15.05C30.7799 14.03 30.9839 13.136 31.3919 12.368C31.7999 11.6 32.3699 11.012 33.1019 10.604C33.8459 10.184 34.6979 9.974 35.6579 9.974C36.5939 9.974 37.4219 10.178 38.1419 10.586C38.8619 10.994 39.4139 11.558 39.7979 12.278C40.1939 12.986 40.3919 13.79 40.3919 14.69ZM38.6999 14.348C38.6999 13.724 38.5619 13.19 38.2859 12.746C38.0099 12.29 37.6319 11.948 37.1519 11.72C36.6839 11.48 36.1619 11.36 35.5859 11.36C34.7579 11.36 34.0499 11.624 33.4619 12.152C32.8859 12.68 32.5559 13.412 32.4719 14.348H38.6999ZM45.302 11.486V17.3C45.302 17.78 45.404 18.122 45.608 18.326C45.812 18.518 46.166 18.614 46.67 18.614H47.876V20H46.4C45.488 20 44.804 19.79 44.348 19.37C43.892 18.95 43.664 18.26 43.664 17.3V11.486H42.386V10.136H43.664V7.652H45.302V10.136H47.876V11.486H45.302ZM59.6106 14.69C59.6106 15.002 59.5926 15.332 59.5566 15.68H51.6726C51.7326 16.652 52.0626 17.414 52.6626 17.966C53.2746 18.506 54.0126 18.776 54.8766 18.776C55.5846 18.776 56.1726 18.614 56.6406 18.29C57.1206 17.954 57.4566 17.51 57.6486 16.958H59.4126C59.1486 17.906 58.6206 18.68 57.8286 19.28C57.0366 19.868 56.0526 20.162 54.8766 20.162C53.9406 20.162 53.1006 19.952 52.3566 19.532C51.6246 19.112 51.0486 18.518 50.6286 17.75C50.2086 16.97 49.9986 16.07 49.9986 15.05C49.9986 14.03 50.2026 13.136 50.6106 12.368C51.0186 11.6 51.5886 11.012 52.3206 10.604C53.0646 10.184 53.9166 9.974 54.8766 9.974C55.8126 9.974 56.6406 10.178 57.3606 10.586C58.0806 10.994 58.6326 11.558 59.0166 12.278C59.4126 12.986 59.6106 13.79 59.6106 14.69ZM57.9186 14.348C57.9186 13.724 57.7806 13.19 57.5046 12.746C57.2286 12.29 56.8506 11.948 56.3706 11.72C55.9026 11.48 55.3806 11.36 54.8046 11.36C53.9766 11.36 53.2686 11.624 52.6806 12.152C52.1046 12.68 51.7746 13.412 51.6906 14.348H57.9186Z" fill="#4E4B66"/>
<path d="M71.0587 18.6498L70.5512 8.5H83.4488L82.9413 18.6498C82.8614 20.2464 81.5436 21.5 79.945 21.5H74.055C72.4564 21.5 71.1386 20.2464 71.0587 18.6498Z" stroke="#4E4B66" stroke-width="2"/>
<path d="M74.25 8H79.75V7.5C79.75 6.39543 78.8546 5.5 77.75 5.5H76.25C75.1454 5.5 74.25 6.39543 74.25 7.5V8Z" stroke="#4E4B66" stroke-width="2"/>
<path d="M68.75 8.25H85.25" stroke="#4E4B66" stroke-width="2" stroke-linecap="round"/>
<path d="M79.25 12.75V16.5" stroke="#4E4B66" stroke-width="2" stroke-linecap="round"/>
<path d="M74.75 12.75V16.5" stroke="#4E4B66" stroke-width="2" stroke-linecap="round"/>
</svg>
