<svg width="62" height="27" viewBox="0 0 62 27" fill="none" xmlns="http://www.w3.org/2000/svg">
<path d="M10.386 14.69C10.386 15.002 10.368 15.332 10.332 15.68H2.448C2.508 16.652 2.838 17.414 3.438 17.966C4.05 18.506 4.788 18.776 5.652 18.776C6.36 18.776 6.948 18.614 7.416 18.29C7.896 17.954 8.232 17.51 8.424 16.958H10.188C9.924 17.906 9.396 18.68 8.604 19.28C7.812 19.868 6.828 20.162 5.652 20.162C4.716 20.162 3.876 19.952 3.132 19.532C2.4 19.112 1.824 18.518 1.404 17.75C0.984 16.97 0.774 16.07 0.774 15.05C0.774 14.03 0.978 13.136 1.386 12.368C1.794 11.6 2.364 11.012 3.096 10.604C3.84 10.184 4.692 9.974 5.652 9.974C6.588 9.974 7.416 10.178 8.136 10.586C8.856 10.994 9.408 11.558 9.792 12.278C10.188 12.986 10.386 13.79 10.386 14.69ZM8.694 14.348C8.694 13.724 8.556 13.19 8.28 12.746C8.004 12.29 7.626 11.948 7.146 11.72C6.678 11.48 6.156 11.36 5.58 11.36C4.752 11.36 4.044 11.624 3.456 12.152C2.88 12.68 2.55 13.412 2.466 14.348H8.694ZM12.6861 15.032C12.6861 14.024 12.8901 13.142 13.2981 12.386C13.7061 11.618 14.2641 11.024 14.9721 10.604C15.6921 10.184 16.4961 9.974 17.3841 9.974C18.1521 9.974 18.8661 10.154 19.5261 10.514C20.1861 10.862 20.6901 11.324 21.0381 11.9V6.68H22.6941V20H21.0381V18.146C20.7141 18.734 20.2341 19.22 19.5981 19.604C18.9621 19.976 18.2181 20.162 17.3661 20.162C16.4901 20.162 15.6921 19.946 14.9721 19.514C14.2641 19.082 13.7061 18.476 13.2981 17.696C12.8901 16.916 12.6861 16.028 12.6861 15.032ZM21.0381 15.05C21.0381 14.306 20.8881 13.658 20.5881 13.106C20.2881 12.554 19.8801 12.134 19.3641 11.846C18.8601 11.546 18.3021 11.396 17.6901 11.396C17.0781 11.396 16.5201 11.54 16.0161 11.828C15.5121 12.116 15.1101 12.536 14.8101 13.088C14.5101 13.64 14.3601 14.288 14.3601 15.032C14.3601 15.788 14.5101 16.448 14.8101 17.012C15.1101 17.564 15.5121 17.99 16.0161 18.29C16.5201 18.578 17.0781 18.722 17.6901 18.722C18.3021 18.722 18.8601 18.578 19.3641 18.29C19.8801 17.99 20.2881 17.564 20.5881 17.012C20.8881 16.448 21.0381 15.794 21.0381 15.05ZM27.0582 8.534C26.7462 8.534 26.4822 8.426 26.2662 8.21C26.0502 7.994 25.9422 7.73 25.9422 7.418C25.9422 7.106 26.0502 6.842 26.2662 6.626C26.4822 6.41 26.7462 6.302 27.0582 6.302C27.3582 6.302 27.6102 6.41 27.8142 6.626C28.0302 6.842 28.1382 7.106 28.1382 7.418C28.1382 7.73 28.0302 7.994 27.8142 8.21C27.6102 8.426 27.3582 8.534 27.0582 8.534ZM27.8502 10.136V20H26.2122V10.136H27.8502ZM33.3899 11.486V17.3C33.3899 17.78 33.4919 18.122 33.6959 18.326C33.8999 18.518 34.2539 18.614 34.7579 18.614H35.9639V20H34.4879C33.5759 20 32.8919 19.79 32.4359 19.37C31.9799 18.95 31.7519 18.26 31.7519 17.3V11.486H30.4739V10.136H31.7519V7.652H33.3899V10.136H35.9639V11.486H33.3899Z" fill="#4E4B66"/>
<path d="M46.9014 16.3619L57.2969 5.96643C57.3061 5.96378 57.3158 5.9611 57.3258 5.95839C57.4626 5.92133 57.6605 5.88264 57.8925 5.87944C58.3367 5.87331 58.9278 5.99293 59.5133 6.57843C60.0988 7.16392 60.2184 7.75504 60.2123 8.19925C60.2091 8.43131 60.1704 8.6292 60.1334 8.766C60.1307 8.77601 60.128 8.78563 60.1253 8.79486L49.7298 19.1904L46.5157 19.576L46.9014 16.3619Z" stroke="#4E4B66" stroke-width="2" stroke-linecap="round"/>
<path d="M54.7003 7.14871L58.7409 11.1893" stroke="#4E4B66" stroke-width="2"/>
</svg>
